<?xml version="1.0" encoding="UTF-8" standalone="no"?>
<svg
   version="1.1"
   id="svg4"
   sodipodi:docname="hddcoin.svg"
   width="256"
   height="256"
   inkscape:version="1.1.1 (3bf5ae0d25, 2021-09-20)"
   xmlns:inkscape="http://www.inkscape.org/namespaces/inkscape"
   xmlns:sodipodi="http://sodipodi.sourceforge.net/DTD/sodipodi-0.dtd"
   xmlns="http://www.w3.org/2000/svg"
   xmlns:svg="http://www.w3.org/2000/svg">
  <defs
     id="defs8" />
  <sodipodi:namedview
     id="namedview6"
     pagecolor="#ffffff"
     bordercolor="#666666"
     borderopacity="1.0"
     inkscape:pageshadow="2"
     inkscape:pageopacity="0.0"
     inkscape:pagecheckerboard="0"
     showgrid="false"
     fit-margin-top="0"
     fit-margin-left="0"
     fit-margin-right="0"
     fit-margin-bottom="0"
     inkscape:zoom="1.0884365"
     inkscape:cx="-35.831212"
     inkscape:cy="-67.068678"
     inkscape:window-width="2160"
     inkscape:window-height="1346"
     inkscape:window-x="-11"
     inkscape:window-y="-11"
     inkscape:window-maximized="1"
     inkscape:current-layer="svg4" />
  <g
     id="g24615"
     transform="matrix(1.4038456,0,0,1.4038456,272.07654,-63.950804)">
    <path
       style="fill:#207600;fill-opacity:1;stroke:#154f00;stroke-opacity:0.898039"
       d="m -144.54776,208.95264 c -22.44199,-7.16569 -25.9126,-16.37615 -25.96487,-68.90669 -0.0671,-67.436337 3.66473,-71.197405 70.644008,-71.197405 68.764168,0 70.820848,2.061878 70.820848,70.999995 0,53.41123 -2.16108,60.09727 -22.00736,68.08737 -8.2033,3.30265 -83.760066,4.12432 -93.492626,1.01673 z"
       id="path1187" />
    <path
       style="fill:#ffffff;fill-opacity:1;stroke:#175d17;stroke-width:1.05674;stroke-opacity:1"
       d="m -135.50851,197.90433 c 1.32909,-0.84217 4.58387,-4.48087 7.23281,-8.086 2.64898,-3.60515 4.93566,-6.67943 5.08153,-6.8318 0.14588,-0.15234 2.38613,0.66118 4.97831,1.80782 22.86997,10.11649 51.793598,-1.01279 63.024743,-24.25069 23.791609,-49.22632 -39.894223,-94.250271 -78.586363,-55.55815 -16.11616,16.11616 -19.75179,46.04567 -7.26884,59.83914 1.80041,1.98948 1.29037,2.57817 -7.18053,8.28752 -16.40967,11.06005 -3.94774,35.35239 12.71834,24.79216 z"
       id="path1612" />
    <g
       id="g24606"
       transform="translate(-168.04351,141.12745)">
      <path
         style="fill:#7ed230;fill-opacity:1;stroke:#53c105;stroke-opacity:1"
         d="m 62.19295,35.113056 c -9.940151,-2.43301 -11.282041,-3.63852 -8.250001,-7.4115 1.2375,-1.53991 4.275001,-5.74742 6.750001,-9.35002 3.14595,-4.57924 5.1018,-6.51672 6.5,-6.43899 17.805689,0.98985 20.391689,-24.69979 2.70317,-26.85367 -9.85843,-1.20044 -18.150111,10.0401599 -13.815541,18.7290099 0.89157,1.7872 1.50659,3.32831 1.36671,3.42469 -1.01414,0.69877 -12.58531,8.4427701 -15.37324,10.2885401 -7.837217,5.18868 -12.241507,-18.8007101 -5.970948,-32.52275 15.857618,-34.701656 67.916489,-23.407615 67.916489,14.73430988 0,21.71649012 -21.923821,40.27192012 -41.82664,35.40038012 z"
         id="path1616" />
      <path
         style="fill:#23a948;fill-opacity:1;stroke:#067a0c;stroke-opacity:1"
         d="m 23.380041,45.907956 c -6.12784,-6.39608 -3.49365,-11.5565 10.312911,-20.20318 4.674997,-2.92783 11.804627,-7.4988 15.843627,-10.15771 8.23024,-5.41806 8.697881,-5.5596101 10.045861,-3.04087 0.74816,1.39794 0.13302,2.8867 -2.789061,6.75 -2.06191,2.72606 -6.54502,9.05094 -9.96246,14.05529 -11.159268,16.34111 -16.905947,19.4279 -23.450878,12.59647 z"
         id="path1614" />
      <circle
         style="fill:#298100;fill-opacity:1;stroke:#175d17;stroke-width:1.31272;stroke-linecap:round;stroke-miterlimit:4;stroke-dasharray:none;stroke-opacity:1"
         id="path15655"
         cx="68.33857"
         cy="-1.6764374"
         r="4.8729191" />
    </g>
    <ellipse
       style="fill:#ffffff;fill-opacity:1;stroke:#175d17;stroke-width:1.1641;stroke-linecap:round;stroke-miterlimit:4;stroke-dasharray:none;stroke-opacity:1"
       id="path24521"
       cx="-54.19585"
       cy="192.10941"
       rx="9.7386723"
       ry="9.3152514" />
  </g>
</svg>
